<?xml version="1.0" encoding="UTF-8"?>
<svg xmlns="http://www.w3.org/2000/svg" viewBox="5 4 48 34">
<path fill="#667ACC" d="M 29.046875 5.910156 C 29.074219 5.910156 29.101562 5.910156 29.128906 5.910156 C 31.179688 5.914062 33.269531 6.519531 34.957031 7.710938 C 34.972656 7.71875 34.988281 7.730469 35.003906 7.742188 C 35.351562 7.984375 35.683594 8.246094 36.003906 8.527344 C 36.027344 8.550781 36.050781 8.570312 36.074219 8.589844 C 36.246094 8.742188 36.40625 8.90625 36.570312 9.066406 C 36.59375 9.09375 36.621094 9.117188 36.648438 9.144531 C 36.820312 9.3125 36.976562 9.492188 37.125 9.683594 C 37.148438 9.707031 37.171875 9.734375 37.195312 9.761719 C 38.414062 11.1875 39.53125 13.410156 39.5 15.34375 C 39.5 15.363281 39.5 15.382812 39.5 15.402344 C 39.5 15.414062 39.5 15.429688 39.5 15.445312 C 39.519531 15.441406 39.539062 15.4375 39.558594 15.433594 C 39.585938 15.429688 39.613281 15.425781 39.644531 15.421875 C 39.671875 15.417969 39.695312 15.410156 39.722656 15.40625 C 40.066406 15.359375 40.414062 15.363281 40.761719 15.363281 C 40.785156 15.363281 40.8125 15.363281 40.839844 15.363281 C 43.371094 15.363281 45.78125 16.292969 47.945312 18.183594 C 47.96875 18.203125 47.96875 18.203125 47.988281 18.222656 C 48.308594 18.515625 48.308594 18.515625 48.433594 18.667969 C 48.488281 18.730469 48.542969 18.789062 48.597656 18.847656 C 48.777344 19.035156 48.9375 19.234375 49.09375 19.441406 C 49.109375 19.457031 49.121094 19.476562 49.136719 19.496094 C 49.484375 19.953125 49.796875 20.4375 50.0625 20.953125 C 50.082031 20.984375 50.082031 20.984375 50.101562 21.019531 C 50.628906 22.035156 50.976562 23.113281 51.15625 24.246094 C 51.160156 24.277344 51.167969 24.308594 51.171875 24.339844 C 51.246094 24.847656 51.273438 25.351562 51.269531 25.867188 C 51.269531 25.898438 51.269531 25.929688 51.269531 25.960938 C 51.269531 26.429688 51.257812 26.890625 51.1875 27.355469 C 51.183594 27.386719 51.179688 27.414062 51.171875 27.445312 C 50.90625 29.246094 50.179688 30.980469 49.042969 32.402344 C 49.023438 32.425781 49.003906 32.449219 48.984375 32.472656 C 48.875 32.609375 48.761719 32.742188 48.644531 32.871094 C 48.609375 32.910156 48.578125 32.945312 48.546875 32.980469 C 48.425781 33.121094 48.296875 33.253906 48.167969 33.386719 C 48.132812 33.421875 48.09375 33.460938 48.058594 33.496094 C 47.902344 33.65625 47.738281 33.796875 47.5625 33.9375 C 47.535156 33.960938 47.507812 33.984375 47.480469 34.011719 C 47.03125 34.402344 46.523438 34.742188 46.007812 35.039062 C 45.984375 35.050781 45.964844 35.0625 45.941406 35.074219 C 44.628906 35.828125 43.148438 36.273438 41.644531 36.394531 C 41.621094 36.398438 41.601562 36.398438 41.578125 36.402344 C 41.3125 36.421875 41.046875 36.421875 40.777344 36.421875 C 40.777344 35.710938 40.777344 35 40.777344 34.269531 C 41.105469 34.246094 41.433594 34.21875 41.769531 34.195312 C 42.730469 34.054688 43.628906 33.804688 44.5 33.375 C 44.523438 33.363281 44.542969 33.351562 44.566406 33.34375 C 45.210938 33.023438 45.804688 32.601562 46.339844 32.117188 C 46.351562 32.105469 46.367188 32.09375 46.382812 32.078125 C 46.617188 31.863281 46.847656 31.644531 47.054688 31.402344 C 47.074219 31.378906 47.09375 31.355469 47.113281 31.332031 C 48.414062 29.835938 49.097656 27.878906 49.101562 25.90625 C 49.101562 25.878906 49.101562 25.851562 49.101562 25.824219 C 49.101562 25.414062 49.085938 25.015625 49.019531 24.613281 C 49.011719 24.574219 49.011719 24.574219 49.003906 24.535156 C 48.75 22.972656 48.058594 21.550781 47.027344 20.363281 C 47.007812 20.339844 46.992188 20.320312 46.972656 20.300781 C 46.730469 20.019531 46.46875 19.75 46.175781 19.519531 C 46.105469 19.460938 46.035156 19.402344 45.96875 19.34375 C 45.609375 19.046875 45.210938 18.800781 44.808594 18.570312 C 44.789062 18.558594 44.773438 18.550781 44.753906 18.539062 C 43.566406 17.859375 42.175781 17.539062 40.8125 17.539062 C 40.789062 17.539062 40.769531 17.539062 40.742188 17.539062 C 39.847656 17.539062 39.003906 17.714844 38.136719 17.9375 C 38.042969 17.960938 37.945312 17.988281 37.847656 18.011719 C 37.789062 18.027344 37.730469 18.042969 37.671875 18.058594 C 37.644531 18.0625 37.617188 18.070312 37.589844 18.078125 C 37.554688 18.085938 37.554688 18.085938 37.519531 18.09375 C 37.457031 18.109375 37.457031 18.109375 37.355469 18.109375 C 37.359375 18.074219 37.359375 18.074219 37.359375 18.039062 C 37.421875 16.609375 37.421875 16.609375 37.304688 15.1875 C 37.300781 15.160156 37.296875 15.132812 37.292969 15.105469 C 37.222656 14.6875 37.121094 14.285156 37 13.882812 C 36.988281 13.851562 36.988281 13.851562 36.980469 13.816406 C 36.542969 12.414062 35.644531 11.015625 34.492188 10.097656 C 34.417969 10.039062 34.347656 9.976562 34.277344 9.917969 C 33.777344 9.5 33.214844 9.175781 32.636719 8.886719 C 32.605469 8.871094 32.605469 8.871094 32.574219 8.855469 C 30.671875 7.910156 28.363281 7.863281 26.367188 8.523438 C 26.148438 8.601562 25.933594 8.6875 25.722656 8.785156 C 25.695312 8.796875 25.667969 8.808594 25.644531 8.820312 C 24.667969 9.265625 23.652344 9.921875 22.957031 10.757812 C 22.90625 10.820312 22.851562 10.875 22.796875 10.933594 C 21.1875 12.714844 20.6875 15.003906 20.761719 17.335938 C 20.769531 17.59375 20.773438 17.851562 20.769531 18.109375 C 20.585938 18.089844 20.414062 18.046875 20.234375 18 C 20.183594 17.988281 20.136719 17.976562 20.085938 17.960938 C 19.964844 17.929688 19.847656 17.898438 19.726562 17.867188 C 19.285156 17.753906 18.847656 17.65625 18.398438 17.597656 C 18.375 17.59375 18.351562 17.589844 18.332031 17.585938 C 16.484375 17.339844 14.503906 17.792969 12.9375 18.800781 C 12.921875 18.8125 12.902344 18.820312 12.886719 18.832031 C 12.46875 19.101562 12.082031 19.410156 11.710938 19.746094 C 11.667969 19.789062 11.625 19.828125 11.578125 19.867188 C 11.40625 20.023438 11.25 20.1875 11.101562 20.363281 C 11.078125 20.386719 11.058594 20.410156 11.039062 20.433594 C 9.59375 22.09375 8.898438 24.320312 9.042969 26.507812 C 9.097656 27.1875 9.226562 27.859375 9.441406 28.507812 C 9.449219 28.53125 9.457031 28.554688 9.464844 28.578125 C 9.777344 29.527344 10.273438 30.394531 10.894531 31.171875 C 10.90625 31.1875 10.921875 31.203125 10.933594 31.21875 C 11.117188 31.445312 11.320312 31.652344 11.523438 31.859375 C 11.535156 31.871094 11.546875 31.882812 11.5625 31.898438 C 11.730469 32.066406 11.90625 32.226562 12.09375 32.375 C 12.113281 32.390625 12.132812 32.40625 12.152344 32.421875 C 12.648438 32.8125 13.179688 33.152344 13.75 33.425781 C 13.789062 33.441406 13.824219 33.460938 13.859375 33.476562 C 14.601562 33.839844 15.414062 34.0625 16.230469 34.175781 C 16.253906 34.179688 16.28125 34.183594 16.3125 34.1875 C 16.664062 34.230469 17.019531 34.246094 17.375 34.269531 C 17.375 34.980469 17.375 35.691406 17.375 36.421875 C 16.835938 36.421875 16.835938 36.421875 16.589844 36.402344 C 16.546875 36.398438 16.546875 36.398438 16.503906 36.394531 C 14.1875 36.203125 12.011719 35.253906 10.292969 33.6875 C 10.253906 33.648438 10.210938 33.609375 10.167969 33.574219 C 9.957031 33.386719 9.753906 33.1875 9.566406 32.972656 C 9.527344 32.925781 9.488281 32.878906 9.445312 32.832031 C 7.679688 30.839844 6.8125 28.21875 6.871094 25.265625 C 6.949219 23.945312 7.265625 22.632812 7.832031 21.4375 C 7.84375 21.417969 7.851562 21.398438 7.863281 21.378906 C 7.910156 21.277344 7.960938 21.179688 8.011719 21.078125 C 8.039062 21.023438 8.066406 20.96875 8.09375 20.914062 C 8.464844 20.179688 8.957031 19.492188 9.511719 18.886719 C 9.542969 18.851562 9.574219 18.816406 9.605469 18.78125 C 9.730469 18.636719 9.863281 18.5 10 18.363281 C 10.023438 18.339844 10.042969 18.320312 10.066406 18.296875 C 10.195312 18.167969 10.324219 18.046875 10.460938 17.929688 C 10.5 17.894531 10.5 17.894531 10.539062 17.863281 C 11.09375 17.382812 11.707031 16.976562 12.351562 16.621094 C 12.382812 16.605469 12.382812 16.605469 12.414062 16.585938 C 13.441406 16.011719 14.582031 15.652344 15.742188 15.476562 C 15.773438 15.46875 15.808594 15.464844 15.839844 15.460938 C 16.316406 15.390625 16.792969 15.359375 17.273438 15.359375 C 17.351562 15.363281 17.429688 15.359375 17.503906 15.359375 C 18.375 15.359375 18.375 15.359375 18.628906 15.445312 C 18.628906 15.414062 18.628906 15.414062 18.628906 15.378906 C 18.644531 15.15625 18.671875 14.941406 18.707031 14.71875 C 18.714844 14.6875 18.71875 14.652344 18.726562 14.617188 C 18.890625 13.671875 19.1875 12.75 19.597656 11.882812 C 19.605469 11.863281 19.617188 11.84375 19.625 11.820312 C 19.929688 11.179688 20.308594 10.578125 20.746094 10.015625 C 20.761719 9.992188 20.777344 9.972656 20.792969 9.953125 C 21.191406 9.445312 21.628906 8.945312 22.121094 8.527344 C 22.148438 8.507812 22.171875 8.484375 22.195312 8.464844 C 23.832031 7.015625 25.953125 6.132812 28.121094 5.941406 C 28.144531 5.941406 28.171875 5.9375 28.195312 5.933594 C 28.480469 5.910156 28.761719 5.910156 29.046875 5.910156 Z M 29.046875 5.910156 "/>
<path fill="#667ACC" d="M 22.632812 22.257812 C 22.675781 22.308594 22.714844 22.359375 22.757812 22.410156 C 22.78125 22.445312 22.808594 22.476562 22.832031 22.511719 C 22.84375 22.527344 22.859375 22.546875 22.871094 22.5625 C 22.941406 22.652344 23.011719 22.738281 23.085938 22.828125 C 23.113281 22.863281 23.140625 22.898438 23.167969 22.933594 C 23.183594 22.949219 23.195312 22.964844 23.210938 22.980469 C 23.273438 23.058594 23.332031 23.136719 23.394531 23.214844 C 23.453125 23.285156 23.511719 23.355469 23.566406 23.429688 C 23.699219 23.589844 23.828125 23.75 23.957031 23.914062 C 24.058594 24.046875 24.164062 24.175781 24.269531 24.308594 C 24.359375 24.417969 24.445312 24.527344 24.53125 24.636719 C 24.636719 24.773438 24.746094 24.90625 24.851562 25.035156 C 24.972656 25.183594 25.089844 25.328125 25.207031 25.480469 C 25.296875 25.59375 25.386719 25.707031 25.476562 25.816406 C 25.582031 25.945312 25.683594 26.070312 25.78125 26.199219 C 25.886719 26.335938 25.996094 26.46875 26.105469 26.597656 C 26.222656 26.746094 26.34375 26.890625 26.457031 27.042969 C 26.546875 27.15625 26.636719 27.269531 26.730469 27.378906 C 26.832031 27.507812 26.933594 27.632812 27.035156 27.761719 C 27.136719 27.898438 27.246094 28.03125 27.355469 28.164062 C 27.414062 28.234375 27.472656 28.308594 27.53125 28.378906 C 27.546875 28.394531 27.558594 28.410156 27.570312 28.425781 C 27.855469 28.777344 27.976562 29.082031 27.941406 29.53125 C 27.898438 29.75 27.804688 29.90625 27.660156 30.070312 C 27.636719 30.097656 27.617188 30.121094 27.59375 30.148438 C 27.546875 30.207031 27.5 30.261719 27.449219 30.320312 C 27.347656 30.4375 27.25 30.5625 27.148438 30.683594 C 27.015625 30.847656 26.882812 31.011719 26.742188 31.175781 C 26.667969 31.261719 26.597656 31.351562 26.523438 31.441406 C 26.429688 31.558594 26.332031 31.675781 26.234375 31.789062 C 26.160156 31.878906 26.085938 31.964844 26.015625 32.054688 C 25.917969 32.171875 25.820312 32.289062 25.722656 32.40625 C 25.648438 32.492188 25.574219 32.582031 25.503906 32.667969 C 25.410156 32.789062 25.3125 32.902344 25.210938 33.019531 C 25.140625 33.105469 25.066406 33.195312 24.992188 33.285156 C 24.898438 33.402344 24.800781 33.519531 24.703125 33.632812 C 24.628906 33.722656 24.554688 33.808594 24.484375 33.898438 C 24.398438 34.003906 24.3125 34.105469 24.226562 34.207031 C 24.125 34.328125 24.023438 34.453125 23.921875 34.574219 C 23.722656 34.820312 23.523438 35.066406 23.316406 35.308594 C 23.226562 35.414062 23.136719 35.523438 23.050781 35.632812 C 22.972656 35.726562 22.894531 35.820312 22.816406 35.914062 C 22.757812 35.980469 22.699219 36.050781 22.644531 36.121094 C 22.625 36.144531 22.605469 36.171875 22.582031 36.195312 C 22.566406 36.21875 22.546875 36.242188 22.53125 36.265625 C 22.480469 36.316406 22.445312 36.34375 22.378906 36.371094 C 22.34375 36.339844 22.34375 36.339844 22.308594 36.3125 C 22.148438 36.171875 21.984375 36.03125 21.816406 35.894531 C 21.71875 35.816406 21.625 35.738281 21.527344 35.65625 C 21.507812 35.640625 21.488281 35.625 21.46875 35.609375 C 21.355469 35.515625 21.238281 35.417969 21.125 35.320312 C 21.011719 35.222656 20.894531 35.128906 20.769531 35.039062 C 20.808594 34.914062 20.878906 34.835938 20.964844 34.742188 C 20.992188 34.707031 21.019531 34.675781 21.046875 34.644531 C 21.066406 34.621094 21.066406 34.621094 21.089844 34.597656 C 21.140625 34.535156 21.191406 34.472656 21.246094 34.410156 C 21.328125 34.304688 21.414062 34.203125 21.496094 34.105469 C 21.582031 34.003906 21.667969 33.898438 21.753906 33.796875 C 21.847656 33.679688 21.945312 33.5625 22.042969 33.445312 C 22.117188 33.359375 22.191406 33.269531 22.261719 33.183594 C 22.359375 33.0625 22.457031 32.949219 22.554688 32.832031 C 22.628906 32.746094 22.703125 32.65625 22.773438 32.566406 C 22.871094 32.449219 22.96875 32.332031 23.066406 32.21875 C 23.140625 32.128906 23.210938 32.042969 23.285156 31.953125 C 23.378906 31.835938 23.476562 31.71875 23.574219 31.601562 C 23.648438 31.515625 23.722656 31.425781 23.792969 31.335938 C 23.878906 31.234375 23.964844 31.132812 24.050781 31.03125 C 24.175781 30.882812 24.296875 30.734375 24.417969 30.582031 C 24.554688 30.417969 24.6875 30.253906 24.824219 30.089844 C 24.917969 29.980469 25.007812 29.871094 25.097656 29.757812 C 25.144531 29.703125 25.191406 29.652344 25.238281 29.597656 C 25.25 29.582031 25.261719 29.570312 25.277344 29.554688 C 25.300781 29.523438 25.328125 29.496094 25.355469 29.46875 C 25.40625 29.410156 25.4375 29.371094 25.445312 29.292969 C 25.398438 29.1875 25.324219 29.109375 25.253906 29.019531 C 25.21875 28.980469 25.1875 28.941406 25.152344 28.902344 C 25.136719 28.882812 25.121094 28.863281 25.105469 28.84375 C 25.039062 28.769531 24.976562 28.6875 24.917969 28.609375 C 24.8125 28.476562 24.707031 28.34375 24.597656 28.210938 C 24.476562 28.066406 24.359375 27.921875 24.242188 27.769531 C 24.15625 27.65625 24.0625 27.542969 23.972656 27.429688 C 23.871094 27.304688 23.769531 27.179688 23.667969 27.050781 C 23.5625 26.914062 23.457031 26.78125 23.347656 26.652344 C 23.226562 26.503906 23.109375 26.359375 22.992188 26.207031 C 22.90625 26.09375 22.8125 25.980469 22.722656 25.871094 C 22.621094 25.742188 22.519531 25.617188 22.417969 25.488281 C 22.3125 25.351562 22.207031 25.21875 22.097656 25.089844 C 21.976562 24.941406 21.859375 24.796875 21.742188 24.644531 C 21.65625 24.53125 21.5625 24.417969 21.472656 24.308594 C 21.292969 24.085938 21.117188 23.867188 20.949219 23.640625 C 20.984375 23.566406 21.015625 23.519531 21.082031 23.46875 C 21.097656 23.453125 21.113281 23.441406 21.128906 23.429688 C 21.148438 23.414062 21.164062 23.402344 21.183594 23.386719 C 21.21875 23.355469 21.257812 23.328125 21.292969 23.296875 C 21.3125 23.28125 21.332031 23.265625 21.351562 23.25 C 21.421875 23.195312 21.492188 23.136719 21.566406 23.078125 C 21.722656 22.949219 21.878906 22.824219 22.039062 22.699219 C 22.121094 22.632812 22.203125 22.566406 22.285156 22.5 C 22.304688 22.484375 22.324219 22.46875 22.34375 22.453125 C 22.378906 22.421875 22.414062 22.390625 22.449219 22.363281 C 22.46875 22.347656 22.484375 22.335938 22.5 22.320312 C 22.515625 22.308594 22.53125 22.296875 22.542969 22.285156 C 22.582031 22.257812 22.582031 22.257812 22.632812 22.257812 Z M 22.632812 22.257812 "/>
<path fill="#667ACC" d="M 28.730469 34.269531 C 31.222656 34.269531 33.71875 34.269531 36.285156 34.269531 C 36.285156 34.980469 36.285156 35.691406 36.285156 36.421875 C 33.792969 36.421875 31.300781 36.421875 28.730469 36.421875 C 28.730469 35.710938 28.730469 35 28.730469 34.269531 Z M 28.730469 34.269531 "/>
</svg>
