<?xml version="1.0" encoding="UTF-8"?>
<svg xmlns="http://www.w3.org/2000/svg" xmlns:xlink="http://www.w3.org/1999/xlink" width="180px" height="47px" viewBox="0 0 179 47" version="1.1">
<g id="surface1">
<path style=" stroke:none;fill-rule:nonzero;fill:rgb(100%,100%,100%);fill-opacity:1;" d="M 29.046875 5.910156 C 29.074219 5.910156 29.101562 5.910156 29.128906 5.910156 C 31.179688 5.914062 33.269531 6.519531 34.957031 7.710938 C 34.972656 7.71875 34.988281 7.730469 35.003906 7.742188 C 35.351562 7.984375 35.683594 8.246094 36.003906 8.527344 C 36.027344 8.550781 36.050781 8.570312 36.074219 8.589844 C 36.246094 8.742188 36.40625 8.90625 36.570312 9.066406 C 36.59375 9.09375 36.621094 9.117188 36.648438 9.144531 C 36.820312 9.3125 36.976562 9.492188 37.125 9.683594 C 37.148438 9.707031 37.171875 9.734375 37.195312 9.761719 C 38.414062 11.1875 39.53125 13.410156 39.5 15.34375 C 39.5 15.363281 39.5 15.382812 39.5 15.402344 C 39.5 15.414062 39.5 15.429688 39.5 15.445312 C 39.519531 15.441406 39.539062 15.4375 39.558594 15.433594 C 39.585938 15.429688 39.613281 15.425781 39.644531 15.421875 C 39.671875 15.417969 39.695312 15.410156 39.722656 15.40625 C 40.066406 15.359375 40.414062 15.363281 40.761719 15.363281 C 40.785156 15.363281 40.8125 15.363281 40.839844 15.363281 C 43.371094 15.363281 45.78125 16.292969 47.945312 18.183594 C 47.96875 18.203125 47.96875 18.203125 47.988281 18.222656 C 48.308594 18.515625 48.308594 18.515625 48.433594 18.667969 C 48.488281 18.730469 48.542969 18.789062 48.597656 18.847656 C 48.777344 19.035156 48.9375 19.234375 49.09375 19.441406 C 49.109375 19.457031 49.121094 19.476562 49.136719 19.496094 C 49.484375 19.953125 49.796875 20.4375 50.0625 20.953125 C 50.082031 20.984375 50.082031 20.984375 50.101562 21.019531 C 50.628906 22.035156 50.976562 23.113281 51.15625 24.246094 C 51.160156 24.277344 51.167969 24.308594 51.171875 24.339844 C 51.246094 24.847656 51.273438 25.351562 51.269531 25.867188 C 51.269531 25.898438 51.269531 25.929688 51.269531 25.960938 C 51.269531 26.429688 51.257812 26.890625 51.1875 27.355469 C 51.183594 27.386719 51.179688 27.414062 51.171875 27.445312 C 50.90625 29.246094 50.179688 30.980469 49.042969 32.402344 C 49.023438 32.425781 49.003906 32.449219 48.984375 32.472656 C 48.875 32.609375 48.761719 32.742188 48.644531 32.871094 C 48.609375 32.910156 48.578125 32.945312 48.546875 32.980469 C 48.425781 33.121094 48.296875 33.253906 48.167969 33.386719 C 48.132812 33.421875 48.09375 33.460938 48.058594 33.496094 C 47.902344 33.65625 47.738281 33.796875 47.5625 33.9375 C 47.535156 33.960938 47.507812 33.984375 47.480469 34.011719 C 47.03125 34.402344 46.523438 34.742188 46.007812 35.039062 C 45.984375 35.050781 45.964844 35.0625 45.941406 35.074219 C 44.628906 35.828125 43.148438 36.273438 41.644531 36.394531 C 41.621094 36.398438 41.601562 36.398438 41.578125 36.402344 C 41.3125 36.421875 41.046875 36.421875 40.777344 36.421875 C 40.777344 35.710938 40.777344 35 40.777344 34.269531 C 41.105469 34.246094 41.433594 34.21875 41.769531 34.195312 C 42.730469 34.054688 43.628906 33.804688 44.5 33.375 C 44.523438 33.363281 44.542969 33.351562 44.566406 33.34375 C 45.210938 33.023438 45.804688 32.601562 46.339844 32.117188 C 46.351562 32.105469 46.367188 32.09375 46.382812 32.078125 C 46.617188 31.863281 46.847656 31.644531 47.054688 31.402344 C 47.074219 31.378906 47.09375 31.355469 47.113281 31.332031 C 48.414062 29.835938 49.097656 27.878906 49.101562 25.90625 C 49.101562 25.878906 49.101562 25.851562 49.101562 25.824219 C 49.101562 25.414062 49.085938 25.015625 49.019531 24.613281 C 49.011719 24.574219 49.011719 24.574219 49.003906 24.535156 C 48.75 22.972656 48.058594 21.550781 47.027344 20.363281 C 47.007812 20.339844 46.992188 20.320312 46.972656 20.300781 C 46.730469 20.019531 46.46875 19.75 46.175781 19.519531 C 46.105469 19.460938 46.035156 19.402344 45.96875 19.34375 C 45.609375 19.046875 45.210938 18.800781 44.808594 18.570312 C 44.789062 18.558594 44.773438 18.550781 44.753906 18.539062 C 43.566406 17.859375 42.175781 17.539062 40.8125 17.539062 C 40.789062 17.539062 40.769531 17.539062 40.742188 17.539062 C 39.847656 17.539062 39.003906 17.714844 38.136719 17.9375 C 38.042969 17.960938 37.945312 17.988281 37.847656 18.011719 C 37.789062 18.027344 37.730469 18.042969 37.671875 18.058594 C 37.644531 18.0625 37.617188 18.070312 37.589844 18.078125 C 37.554688 18.085938 37.554688 18.085938 37.519531 18.09375 C 37.457031 18.109375 37.457031 18.109375 37.355469 18.109375 C 37.359375 18.074219 37.359375 18.074219 37.359375 18.039062 C 37.421875 16.609375 37.421875 16.609375 37.304688 15.1875 C 37.300781 15.160156 37.296875 15.132812 37.292969 15.105469 C 37.222656 14.6875 37.121094 14.285156 37 13.882812 C 36.988281 13.851562 36.988281 13.851562 36.980469 13.816406 C 36.542969 12.414062 35.644531 11.015625 34.492188 10.097656 C 34.417969 10.039062 34.347656 9.976562 34.277344 9.917969 C 33.777344 9.5 33.214844 9.175781 32.636719 8.886719 C 32.605469 8.871094 32.605469 8.871094 32.574219 8.855469 C 30.671875 7.910156 28.363281 7.863281 26.367188 8.523438 C 26.148438 8.601562 25.933594 8.6875 25.722656 8.785156 C 25.695312 8.796875 25.667969 8.808594 25.644531 8.820312 C 24.667969 9.265625 23.652344 9.921875 22.957031 10.757812 C 22.90625 10.820312 22.851562 10.875 22.796875 10.933594 C 21.1875 12.714844 20.6875 15.003906 20.761719 17.335938 C 20.769531 17.59375 20.773438 17.851562 20.769531 18.109375 C 20.585938 18.089844 20.414062 18.046875 20.234375 18 C 20.183594 17.988281 20.136719 17.976562 20.085938 17.960938 C 19.964844 17.929688 19.847656 17.898438 19.726562 17.867188 C 19.285156 17.753906 18.847656 17.65625 18.398438 17.597656 C 18.375 17.59375 18.351562 17.589844 18.332031 17.585938 C 16.484375 17.339844 14.503906 17.792969 12.9375 18.800781 C 12.921875 18.8125 12.902344 18.820312 12.886719 18.832031 C 12.46875 19.101562 12.082031 19.410156 11.710938 19.746094 C 11.667969 19.789062 11.625 19.828125 11.578125 19.867188 C 11.40625 20.023438 11.25 20.1875 11.101562 20.363281 C 11.078125 20.386719 11.058594 20.410156 11.039062 20.433594 C 9.59375 22.09375 8.898438 24.320312 9.042969 26.507812 C 9.097656 27.1875 9.226562 27.859375 9.441406 28.507812 C 9.449219 28.53125 9.457031 28.554688 9.464844 28.578125 C 9.777344 29.527344 10.273438 30.394531 10.894531 31.171875 C 10.90625 31.1875 10.921875 31.203125 10.933594 31.21875 C 11.117188 31.445312 11.320312 31.652344 11.523438 31.859375 C 11.535156 31.871094 11.546875 31.882812 11.5625 31.898438 C 11.730469 32.066406 11.90625 32.226562 12.09375 32.375 C 12.113281 32.390625 12.132812 32.40625 12.152344 32.421875 C 12.648438 32.8125 13.179688 33.152344 13.75 33.425781 C 13.789062 33.441406 13.824219 33.460938 13.859375 33.476562 C 14.601562 33.839844 15.414062 34.0625 16.230469 34.175781 C 16.253906 34.179688 16.28125 34.183594 16.3125 34.1875 C 16.664062 34.230469 17.019531 34.246094 17.375 34.269531 C 17.375 34.980469 17.375 35.691406 17.375 36.421875 C 16.835938 36.421875 16.835938 36.421875 16.589844 36.402344 C 16.546875 36.398438 16.546875 36.398438 16.503906 36.394531 C 14.1875 36.203125 12.011719 35.253906 10.292969 33.6875 C 10.253906 33.648438 10.210938 33.609375 10.167969 33.574219 C 9.957031 33.386719 9.753906 33.1875 9.566406 32.972656 C 9.527344 32.925781 9.488281 32.878906 9.445312 32.832031 C 7.679688 30.839844 6.8125 28.21875 6.871094 25.265625 C 6.949219 23.945312 7.265625 22.632812 7.832031 21.4375 C 7.84375 21.417969 7.851562 21.398438 7.863281 21.378906 C 7.910156 21.277344 7.960938 21.179688 8.011719 21.078125 C 8.039062 21.023438 8.066406 20.96875 8.09375 20.914062 C 8.464844 20.179688 8.957031 19.492188 9.511719 18.886719 C 9.542969 18.851562 9.574219 18.816406 9.605469 18.78125 C 9.730469 18.636719 9.863281 18.5 10 18.363281 C 10.023438 18.339844 10.042969 18.320312 10.066406 18.296875 C 10.195312 18.167969 10.324219 18.046875 10.460938 17.929688 C 10.5 17.894531 10.5 17.894531 10.539062 17.863281 C 11.09375 17.382812 11.707031 16.976562 12.351562 16.621094 C 12.382812 16.605469 12.382812 16.605469 12.414062 16.585938 C 13.441406 16.011719 14.582031 15.652344 15.742188 15.476562 C 15.773438 15.46875 15.808594 15.464844 15.839844 15.460938 C 16.316406 15.390625 16.792969 15.359375 17.273438 15.359375 C 17.351562 15.363281 17.429688 15.359375 17.503906 15.359375 C 18.375 15.359375 18.375 15.359375 18.628906 15.445312 C 18.628906 15.414062 18.628906 15.414062 18.628906 15.378906 C 18.644531 15.15625 18.671875 14.941406 18.707031 14.71875 C 18.714844 14.6875 18.71875 14.652344 18.726562 14.617188 C 18.890625 13.671875 19.1875 12.75 19.597656 11.882812 C 19.605469 11.863281 19.617188 11.84375 19.625 11.820312 C 19.929688 11.179688 20.308594 10.578125 20.746094 10.015625 C 20.761719 9.992188 20.777344 9.972656 20.792969 9.953125 C 21.191406 9.445312 21.628906 8.945312 22.121094 8.527344 C 22.148438 8.507812 22.171875 8.484375 22.195312 8.464844 C 23.832031 7.015625 25.953125 6.132812 28.121094 5.941406 C 28.144531 5.941406 28.171875 5.9375 28.195312 5.933594 C 28.480469 5.910156 28.761719 5.910156 29.046875 5.910156 Z M 29.046875 5.910156 "/>
<path style=" stroke:none;fill-rule:nonzero;fill:rgb(100%,100%,100%);fill-opacity:1;" d="M 129.878906 17.953125 C 130.605469 17.953125 131.328125 17.953125 132.074219 17.953125 C 132.074219 20.457031 132.074219 22.957031 132.074219 25.535156 C 134.195312 25.535156 136.320312 25.535156 138.503906 25.535156 C 138.503906 23.035156 138.503906 20.53125 138.503906 17.953125 C 139.230469 17.953125 139.953125 17.953125 140.699219 17.953125 C 140.699219 23.871094 140.699219 29.789062 140.699219 35.882812 C 139.976562 35.882812 139.25 35.882812 138.503906 35.882812 C 138.503906 33.164062 138.503906 30.441406 138.503906 27.636719 C 136.382812 27.636719 134.261719 27.636719 132.074219 27.636719 C 132.074219 30.359375 132.074219 33.078125 132.074219 35.882812 C 131.351562 35.882812 130.625 35.882812 129.878906 35.882812 C 129.878906 29.96875 129.878906 24.050781 129.878906 17.953125 Z M 129.878906 17.953125 "/>
<path style=" stroke:none;fill-rule:nonzero;fill:rgb(100%,100%,100%);fill-opacity:1;" d="M 162.058594 17.390625 C 162.066406 19.546875 162.074219 21.703125 162.082031 23.921875 C 162.167969 23.839844 162.25 23.753906 162.335938 23.667969 C 162.394531 23.617188 162.449219 23.570312 162.507812 23.527344 C 162.523438 23.515625 162.539062 23.503906 162.554688 23.492188 C 162.601562 23.453125 162.648438 23.417969 162.695312 23.382812 C 162.710938 23.375 162.722656 23.363281 162.738281 23.351562 C 163.453125 22.820312 164.417969 22.492188 165.308594 22.480469 C 165.332031 22.480469 165.355469 22.480469 165.378906 22.480469 C 165.886719 22.476562 166.378906 22.480469 166.878906 22.589844 C 166.902344 22.59375 166.921875 22.601562 166.945312 22.605469 C 168.238281 22.886719 169.320312 23.714844 170.035156 24.816406 C 170.074219 24.878906 170.109375 24.9375 170.144531 25 C 170.15625 25.015625 170.164062 25.03125 170.175781 25.046875 C 170.699219 25.925781 170.96875 26.9375 171.089844 27.945312 C 171.09375 27.964844 171.09375 27.984375 171.097656 28.007812 C 171.339844 30.125 171.128906 32.613281 169.789062 34.347656 C 169.683594 34.480469 169.570312 34.605469 169.457031 34.730469 C 169.445312 34.746094 169.433594 34.757812 169.421875 34.769531 C 168.824219 35.414062 168.019531 35.835938 167.179688 36.042969 C 167.152344 36.050781 167.128906 36.054688 167.105469 36.0625 C 166.644531 36.171875 166.183594 36.207031 165.710938 36.203125 C 165.675781 36.203125 165.675781 36.203125 165.636719 36.203125 C 165.234375 36.199219 164.847656 36.183594 164.457031 36.089844 C 164.429688 36.082031 164.40625 36.078125 164.378906 36.070312 C 163.527344 35.859375 162.707031 35.433594 162.082031 34.808594 C 162.074219 35.164062 162.066406 35.519531 162.058594 35.882812 C 161.339844 35.882812 160.625 35.882812 159.886719 35.882812 C 159.886719 30.121094 159.886719 24.355469 159.886719 18.414062 C 160.628906 18.042969 160.628906 18.042969 160.976562 17.878906 C 161.105469 17.816406 161.230469 17.753906 161.359375 17.691406 C 161.398438 17.671875 161.4375 17.65625 161.476562 17.636719 C 161.53125 17.605469 161.589844 17.578125 161.648438 17.550781 C 161.703125 17.523438 161.753906 17.496094 161.808594 17.472656 C 161.824219 17.464844 161.839844 17.453125 161.859375 17.445312 C 161.929688 17.410156 161.976562 17.390625 162.058594 17.390625 Z M 164.328125 24.613281 C 164.308594 24.621094 164.289062 24.625 164.269531 24.628906 C 163.609375 24.808594 163.042969 25.210938 162.542969 25.664062 C 162.523438 25.679688 162.507812 25.695312 162.488281 25.710938 C 162.351562 25.84375 162.074219 26.113281 162.050781 26.300781 C 162.050781 26.320312 162.050781 26.339844 162.050781 26.359375 C 162.050781 26.378906 162.050781 26.398438 162.050781 26.421875 C 162.050781 26.445312 162.050781 26.46875 162.050781 26.492188 C 162.046875 26.515625 162.046875 26.542969 162.046875 26.566406 C 162.046875 26.652344 162.046875 26.734375 162.046875 26.820312 C 162.046875 26.878906 162.046875 26.9375 162.046875 26.996094 C 162.042969 27.195312 162.042969 27.390625 162.042969 27.585938 C 162.042969 27.65625 162.042969 27.722656 162.042969 27.789062 C 162.039062 28.070312 162.039062 28.355469 162.039062 28.636719 C 162.039062 28.707031 162.039062 28.78125 162.039062 28.855469 C 162.039062 28.875 162.039062 28.890625 162.039062 28.910156 C 162.039062 29.203125 162.035156 29.496094 162.035156 29.792969 C 162.03125 30.09375 162.03125 30.394531 162.03125 30.699219 C 162.03125 30.867188 162.03125 31.035156 162.027344 31.207031 C 162.027344 31.367188 162.027344 31.523438 162.027344 31.683594 C 162.027344 31.742188 162.027344 31.800781 162.027344 31.859375 C 162.019531 32.230469 162.054688 32.460938 162.3125 32.734375 C 162.335938 32.761719 162.363281 32.789062 162.386719 32.816406 C 162.453125 32.894531 162.523438 32.96875 162.59375 33.039062 C 162.621094 33.074219 162.621094 33.074219 162.652344 33.105469 C 163.230469 33.722656 164.152344 34.113281 164.988281 34.144531 C 165.023438 34.148438 165.058594 34.148438 165.09375 34.148438 C 165.113281 34.148438 165.132812 34.148438 165.152344 34.148438 C 165.714844 34.160156 165.714844 34.160156 166.265625 34.066406 C 166.289062 34.058594 166.308594 34.054688 166.332031 34.046875 C 166.769531 33.921875 167.136719 33.738281 167.492188 33.449219 C 167.511719 33.4375 167.527344 33.421875 167.546875 33.40625 C 167.695312 33.285156 167.808594 33.140625 167.925781 32.988281 C 167.941406 32.96875 167.960938 32.945312 167.976562 32.921875 C 168.722656 31.929688 168.90625 30.628906 168.902344 29.417969 C 168.902344 29.324219 168.902344 29.234375 168.90625 29.140625 C 168.90625 28.15625 168.765625 27.167969 168.335938 26.277344 C 168.320312 26.25 168.304688 26.21875 168.289062 26.1875 C 167.925781 25.476562 167.328125 24.925781 166.566406 24.671875 C 166.507812 24.652344 166.449219 24.636719 166.390625 24.617188 C 166.371094 24.613281 166.355469 24.609375 166.335938 24.605469 C 166.019531 24.519531 165.703125 24.5 165.375 24.503906 C 165.355469 24.503906 165.335938 24.503906 165.3125 24.503906 C 164.976562 24.503906 164.65625 24.527344 164.328125 24.613281 Z M 164.328125 24.613281 "/>
<path style=" stroke:none;fill-rule:nonzero;fill:rgb(100%,100%,100%);fill-opacity:1;" d="M 64.453125 17.640625 C 64.480469 17.640625 64.503906 17.640625 64.53125 17.640625 C 64.585938 17.640625 64.640625 17.640625 64.695312 17.640625 C 64.78125 17.640625 64.863281 17.640625 64.945312 17.640625 C 65.390625 17.636719 65.832031 17.679688 66.269531 17.78125 C 66.304688 17.789062 66.304688 17.789062 66.339844 17.796875 C 67.058594 17.972656 67.753906 18.304688 68.308594 18.800781 C 68.339844 18.828125 68.339844 18.828125 68.375 18.855469 C 68.4375 18.914062 68.5 18.972656 68.5625 19.03125 C 68.582031 19.046875 68.601562 19.066406 68.621094 19.085938 C 69.058594 19.507812 69.445312 20.125 69.585938 20.722656 C 69.585938 20.761719 69.585938 20.804688 69.585938 20.847656 C 69.335938 20.933594 69.089844 21.015625 68.84375 21.097656 C 68.726562 21.136719 68.613281 21.175781 68.496094 21.214844 C 68.386719 21.253906 68.277344 21.289062 68.164062 21.328125 C 68.121094 21.34375 68.082031 21.355469 68.039062 21.371094 C 67.980469 21.390625 67.917969 21.410156 67.859375 21.429688 C 67.84375 21.4375 67.824219 21.441406 67.808594 21.449219 C 67.714844 21.480469 67.640625 21.496094 67.542969 21.488281 C 67.523438 21.449219 67.523438 21.449219 67.5 21.40625 C 67.253906 20.917969 66.917969 20.46875 66.445312 20.183594 C 66.417969 20.167969 66.390625 20.148438 66.363281 20.132812 C 66.148438 20 65.921875 19.898438 65.679688 19.824219 C 65.664062 19.820312 65.644531 19.8125 65.625 19.808594 C 65.058594 19.644531 64.328125 19.652344 63.765625 19.824219 C 63.738281 19.832031 63.738281 19.832031 63.710938 19.839844 C 63.3125 19.96875 62.988281 20.167969 62.695312 20.464844 C 62.679688 20.480469 62.660156 20.496094 62.644531 20.511719 C 62.210938 20.957031 62.144531 21.585938 62.152344 22.175781 C 62.15625 22.386719 62.1875 22.570312 62.261719 22.769531 C 62.269531 22.796875 62.277344 22.824219 62.289062 22.851562 C 62.710938 23.996094 64.21875 24.625 65.238281 25.09375 C 65.394531 25.164062 65.554688 25.234375 65.710938 25.304688 C 66.710938 25.753906 67.644531 26.285156 68.488281 26.996094 C 68.515625 27.019531 68.539062 27.039062 68.566406 27.0625 C 69.617188 27.9375 70.253906 29.074219 70.394531 30.445312 C 70.464844 31.261719 70.417969 32.101562 70.171875 32.886719 C 70.164062 32.90625 70.160156 32.925781 70.152344 32.945312 C 69.878906 33.789062 69.363281 34.519531 68.664062 35.0625 C 68.652344 35.074219 68.636719 35.085938 68.621094 35.097656 C 68.371094 35.292969 68.105469 35.453125 67.824219 35.601562 C 67.777344 35.625 67.777344 35.625 67.734375 35.648438 C 66.921875 36.054688 66.015625 36.203125 65.117188 36.199219 C 65.039062 36.199219 64.957031 36.199219 64.878906 36.199219 C 64.410156 36.203125 63.945312 36.160156 63.492188 36.042969 C 63.464844 36.035156 63.4375 36.027344 63.410156 36.023438 C 62.398438 35.761719 61.507812 35.25 60.753906 34.527344 C 60.738281 34.511719 60.726562 34.496094 60.710938 34.480469 C 60.097656 33.890625 59.578125 33.140625 59.335938 32.316406 C 59.328125 32.292969 59.324219 32.269531 59.316406 32.246094 C 59.3125 32.230469 59.304688 32.214844 59.300781 32.195312 C 59.347656 32.179688 59.347656 32.179688 59.394531 32.164062 C 59.511719 32.121094 59.625 32.078125 59.742188 32.039062 C 59.796875 32.019531 59.847656 32 59.902344 31.980469 C 60.171875 31.886719 60.441406 31.789062 60.710938 31.691406 C 60.730469 31.683594 60.75 31.675781 60.769531 31.667969 C 60.859375 31.632812 60.949219 31.601562 61.042969 31.566406 C 61.074219 31.554688 61.105469 31.542969 61.136719 31.53125 C 61.164062 31.519531 61.191406 31.511719 61.21875 31.5 C 61.292969 31.476562 61.292969 31.476562 61.394531 31.476562 C 61.410156 31.515625 61.410156 31.515625 61.429688 31.554688 C 61.96875 32.65625 62.742188 33.53125 63.917969 33.953125 C 63.988281 33.976562 64.054688 33.996094 64.125 34.015625 C 64.140625 34.019531 64.160156 34.023438 64.175781 34.03125 C 64.496094 34.117188 64.8125 34.125 65.136719 34.128906 C 65.15625 34.128906 65.175781 34.128906 65.199219 34.128906 C 65.980469 34.132812 66.722656 33.898438 67.3125 33.375 C 67.328125 33.359375 67.34375 33.34375 67.363281 33.332031 C 67.710938 33.007812 67.910156 32.546875 68.027344 32.09375 C 68.035156 32.0625 68.042969 32.03125 68.050781 32 C 68.242188 31.148438 68.089844 30.277344 67.628906 29.542969 C 67.542969 29.410156 67.441406 29.292969 67.339844 29.171875 C 67.3125 29.140625 67.3125 29.140625 67.285156 29.109375 C 66.480469 28.183594 65.324219 27.636719 64.222656 27.160156 C 63.320312 26.765625 62.472656 26.304688 61.699219 25.691406 C 61.675781 25.671875 61.65625 25.65625 61.632812 25.636719 C 61.5 25.53125 61.371094 25.421875 61.25 25.308594 C 61.199219 25.261719 61.148438 25.21875 61.09375 25.175781 C 60.363281 24.546875 59.9375 23.480469 59.863281 22.539062 C 59.773438 21.34375 60.023438 20.21875 60.804688 19.285156 C 61.71875 18.226562 63.058594 17.648438 64.453125 17.640625 Z M 64.453125 17.640625 "/>
<path style=" stroke:none;fill-rule:nonzero;fill:rgb(100%,100%,100%);fill-opacity:1;" d="M 76.269531 17.390625 C 76.277344 19.613281 76.285156 21.835938 76.296875 24.128906 C 76.363281 24.042969 76.429688 23.957031 76.5 23.871094 C 76.925781 23.367188 77.445312 23.011719 78.054688 22.769531 C 78.085938 22.757812 78.117188 22.746094 78.148438 22.734375 C 78.585938 22.574219 79.074219 22.484375 79.542969 22.480469 C 79.570312 22.480469 79.59375 22.480469 79.621094 22.480469 C 80.152344 22.476562 80.671875 22.472656 81.195312 22.589844 C 81.21875 22.597656 81.246094 22.601562 81.269531 22.605469 C 81.617188 22.683594 81.945312 22.796875 82.265625 22.949219 C 82.292969 22.960938 82.292969 22.960938 82.316406 22.972656 C 83.296875 23.453125 83.949219 24.332031 84.296875 25.347656 C 84.433594 25.757812 84.527344 26.171875 84.59375 26.597656 C 84.597656 26.625 84.601562 26.648438 84.605469 26.675781 C 84.617188 26.765625 84.628906 26.855469 84.640625 26.945312 C 84.640625 26.964844 84.644531 26.980469 84.644531 27 C 84.695312 27.425781 84.695312 27.851562 84.695312 28.28125 C 84.695312 28.382812 84.695312 28.488281 84.695312 28.589844 C 84.695312 28.765625 84.695312 28.941406 84.695312 29.117188 C 84.695312 29.375 84.695312 29.628906 84.695312 29.886719 C 84.695312 30.300781 84.695312 30.714844 84.695312 31.128906 C 84.695312 31.53125 84.691406 31.933594 84.691406 32.335938 C 84.691406 32.363281 84.691406 32.386719 84.691406 32.410156 C 84.691406 32.535156 84.691406 32.660156 84.691406 32.785156 C 84.691406 33.820312 84.691406 34.851562 84.691406 35.882812 C 83.972656 35.882812 83.257812 35.882812 82.519531 35.882812 C 82.519531 35.652344 82.519531 35.421875 82.519531 35.183594 C 82.515625 34.4375 82.515625 33.695312 82.511719 32.949219 C 82.511719 32.835938 82.511719 32.71875 82.511719 32.601562 C 82.511719 32.582031 82.511719 32.558594 82.511719 32.535156 C 82.511719 32.160156 82.507812 31.789062 82.507812 31.417969 C 82.507812 31.035156 82.507812 30.652344 82.503906 30.269531 C 82.503906 30.035156 82.503906 29.800781 82.503906 29.566406 C 82.503906 29.402344 82.503906 29.242188 82.5 29.078125 C 82.5 28.984375 82.5 28.894531 82.5 28.800781 C 82.507812 27.960938 82.507812 27.960938 82.425781 27.125 C 82.421875 27.09375 82.417969 27.066406 82.410156 27.039062 C 82.375 26.804688 82.320312 26.578125 82.242188 26.355469 C 82.234375 26.339844 82.230469 26.324219 82.222656 26.308594 C 81.984375 25.621094 81.515625 25.109375 80.863281 24.792969 C 80.5 24.628906 80.109375 24.535156 79.710938 24.53125 C 79.691406 24.53125 79.671875 24.53125 79.652344 24.53125 C 79.589844 24.53125 79.527344 24.53125 79.464844 24.53125 C 79.445312 24.53125 79.421875 24.53125 79.402344 24.53125 C 78.566406 24.53125 77.777344 24.726562 77.164062 25.332031 C 77.144531 25.351562 77.125 25.371094 77.105469 25.390625 C 76.519531 26 76.339844 26.902344 76.304688 27.71875 C 76.304688 27.757812 76.304688 27.757812 76.304688 27.796875 C 76.289062 28.125 76.289062 28.449219 76.289062 28.777344 C 76.289062 28.875 76.289062 28.96875 76.289062 29.066406 C 76.289062 29.230469 76.289062 29.394531 76.289062 29.558594 C 76.285156 29.800781 76.285156 30.039062 76.285156 30.277344 C 76.285156 30.664062 76.285156 31.050781 76.28125 31.4375 C 76.28125 31.816406 76.28125 32.191406 76.277344 32.566406 C 76.277344 32.589844 76.277344 32.613281 76.277344 32.636719 C 76.277344 32.753906 76.277344 32.871094 76.277344 32.988281 C 76.273438 33.953125 76.273438 34.917969 76.269531 35.882812 C 75.554688 35.882812 74.839844 35.882812 74.101562 35.882812 C 74.101562 30.109375 74.101562 24.339844 74.101562 18.390625 C 74.546875 18.175781 74.988281 17.960938 75.4375 17.753906 C 75.550781 17.699219 75.664062 17.644531 75.777344 17.589844 C 75.804688 17.578125 75.832031 17.5625 75.859375 17.550781 C 75.910156 17.523438 75.964844 17.5 76.015625 17.472656 C 76.035156 17.464844 76.058594 17.453125 76.082031 17.441406 C 76.101562 17.429688 76.121094 17.421875 76.140625 17.410156 C 76.191406 17.390625 76.191406 17.390625 76.269531 17.390625 Z M 76.269531 17.390625 "/>
<path style=" stroke:none;fill-rule:nonzero;fill:rgb(100%,100%,100%);fill-opacity:1;" d="M 94.367188 22.476562 C 94.410156 22.476562 94.410156 22.476562 94.453125 22.476562 C 94.871094 22.480469 95.277344 22.5 95.6875 22.589844 C 95.714844 22.597656 95.738281 22.601562 95.765625 22.605469 C 96.628906 22.800781 97.402344 23.207031 98.0625 23.792969 C 98.085938 23.816406 98.109375 23.835938 98.132812 23.855469 C 98.265625 23.972656 98.382812 24.09375 98.496094 24.230469 C 98.503906 24.242188 98.515625 24.253906 98.527344 24.269531 C 99.472656 25.390625 99.851562 26.90625 99.851562 28.351562 C 99.851562 28.386719 99.851562 28.421875 99.851562 28.457031 C 99.851562 28.535156 99.851562 28.609375 99.851562 28.683594 C 99.851562 28.78125 99.851562 28.875 99.851562 28.96875 C 99.851562 29.046875 99.851562 29.121094 99.851562 29.195312 C 99.851562 29.246094 99.851562 29.296875 99.851562 29.347656 C 99.851562 29.636719 99.824219 29.90625 99.796875 30.199219 C 96.789062 30.199219 93.785156 30.199219 90.6875 30.199219 C 90.917969 31.457031 91.300781 32.796875 92.402344 33.574219 C 92.683594 33.765625 92.976562 33.917969 93.296875 34.023438 C 93.316406 34.027344 93.335938 34.035156 93.351562 34.039062 C 93.71875 34.152344 94.09375 34.179688 94.472656 34.175781 C 94.503906 34.175781 94.503906 34.175781 94.535156 34.175781 C 94.839844 34.175781 95.136719 34.164062 95.433594 34.089844 C 95.453125 34.085938 95.476562 34.082031 95.496094 34.074219 C 96.175781 33.90625 96.863281 33.601562 97.390625 33.132812 C 97.449219 33.09375 97.449219 33.09375 97.5 33.089844 C 97.574219 33.132812 97.625 33.191406 97.683594 33.253906 C 97.695312 33.269531 97.707031 33.28125 97.71875 33.296875 C 97.820312 33.410156 97.914062 33.523438 98.003906 33.640625 C 98.058594 33.707031 98.117188 33.769531 98.175781 33.835938 C 98.273438 33.945312 98.367188 34.058594 98.460938 34.175781 C 98.554688 34.285156 98.652344 34.394531 98.75 34.5 C 98.652344 34.625 98.546875 34.726562 98.425781 34.824219 C 98.40625 34.839844 98.390625 34.851562 98.375 34.867188 C 97.339844 35.671875 96.046875 36.191406 94.726562 36.195312 C 94.703125 36.195312 94.675781 36.195312 94.648438 36.195312 C 94.597656 36.195312 94.542969 36.199219 94.488281 36.199219 C 94.410156 36.199219 94.328125 36.199219 94.25 36.199219 C 92.8125 36.207031 91.472656 35.707031 90.429688 34.707031 C 90.417969 34.691406 90.402344 34.679688 90.390625 34.667969 C 90.179688 34.464844 89.992188 34.25 89.820312 34.015625 C 89.804688 33.992188 89.804688 33.992188 89.785156 33.972656 C 88.472656 32.21875 88.199219 29.914062 88.492188 27.789062 C 88.738281 26.140625 89.449219 24.558594 90.816406 23.542969 C 90.972656 23.429688 91.128906 23.324219 91.300781 23.230469 C 91.316406 23.21875 91.335938 23.210938 91.355469 23.199219 C 91.8125 22.9375 92.292969 22.753906 92.804688 22.632812 C 92.84375 22.625 92.84375 22.625 92.878906 22.613281 C 93.371094 22.503906 93.867188 22.472656 94.367188 22.476562 Z M 91.675781 25.484375 C 91.089844 26.132812 90.804688 26.941406 90.664062 27.792969 C 90.664062 27.8125 90.660156 27.832031 90.65625 27.851562 C 90.632812 28.003906 90.636719 28.140625 90.636719 28.300781 C 92.949219 28.300781 95.265625 28.300781 97.652344 28.300781 C 97.65625 27.917969 97.65625 27.917969 97.621094 27.539062 C 97.617188 27.511719 97.617188 27.488281 97.613281 27.460938 C 97.511719 26.761719 97.300781 26.078125 96.835938 25.535156 C 96.816406 25.511719 96.816406 25.511719 96.796875 25.484375 C 96.324219 24.898438 95.523438 24.550781 94.792969 24.460938 C 93.628906 24.40625 92.511719 24.609375 91.675781 25.484375 Z M 91.675781 25.484375 "/>
<path style=" stroke:none;fill-rule:nonzero;fill:rgb(100%,100%,100%);fill-opacity:1;" d="M 144.984375 22.796875 C 145.710938 22.796875 146.433594 22.796875 147.179688 22.796875 C 147.179688 23.023438 147.183594 23.253906 147.183594 23.488281 C 147.183594 24.222656 147.1875 24.957031 147.1875 25.691406 C 147.1875 25.804688 147.191406 25.917969 147.191406 26.03125 C 147.191406 26.054688 147.191406 26.078125 147.191406 26.101562 C 147.191406 26.46875 147.191406 26.835938 147.195312 27.203125 C 147.195312 27.578125 147.195312 27.957031 147.195312 28.332031 C 147.199219 28.566406 147.199219 28.796875 147.199219 29.03125 C 147.199219 29.191406 147.199219 29.351562 147.199219 29.507812 C 147.199219 29.601562 147.199219 29.691406 147.199219 29.785156 C 147.203125 30.125 147.203125 30.464844 147.21875 30.804688 C 147.21875 30.828125 147.21875 30.855469 147.21875 30.878906 C 147.257812 31.769531 147.46875 32.730469 148.125 33.375 C 148.617188 33.820312 149.242188 34.089844 149.910156 34.097656 C 149.929688 34.097656 149.949219 34.097656 149.96875 34.097656 C 150.390625 34.101562 150.800781 34.101562 151.210938 33.988281 C 151.230469 33.984375 151.246094 33.980469 151.265625 33.972656 C 151.917969 33.796875 152.453125 33.402344 152.796875 32.816406 C 153.132812 32.214844 153.265625 31.53125 153.292969 30.847656 C 153.292969 30.820312 153.296875 30.792969 153.296875 30.765625 C 153.308594 30.4375 153.308594 30.109375 153.308594 29.78125 C 153.308594 29.6875 153.308594 29.59375 153.3125 29.5 C 153.3125 29.335938 153.3125 29.175781 153.3125 29.011719 C 153.3125 28.777344 153.3125 28.542969 153.3125 28.308594 C 153.316406 27.925781 153.316406 27.546875 153.316406 27.164062 C 153.320312 26.796875 153.320312 26.425781 153.320312 26.054688 C 153.320312 26.019531 153.320312 26.019531 153.320312 25.988281 C 153.320312 25.871094 153.320312 25.757812 153.320312 25.640625 C 153.324219 24.695312 153.328125 23.746094 153.332031 22.796875 C 154.0625 22.796875 154.796875 22.796875 155.550781 22.796875 C 155.550781 27.113281 155.550781 31.433594 155.550781 35.882812 C 154.816406 35.882812 154.085938 35.882812 153.332031 35.882812 C 153.320312 35.488281 153.3125 35.089844 153.304688 34.679688 C 153.210938 34.78125 153.121094 34.882812 153.023438 34.988281 C 152.5 35.546875 151.828125 35.910156 151.085938 36.089844 C 151.0625 36.09375 151.042969 36.097656 151.023438 36.105469 C 150.628906 36.199219 150.234375 36.203125 149.832031 36.203125 C 149.792969 36.203125 149.792969 36.203125 149.753906 36.203125 C 149.265625 36.203125 148.785156 36.164062 148.3125 36.046875 C 148.273438 36.035156 148.273438 36.035156 148.234375 36.027344 C 147.515625 35.839844 146.898438 35.503906 146.363281 34.988281 C 146.347656 34.972656 146.332031 34.957031 146.316406 34.941406 C 145.3125 34.011719 145.058594 32.367188 144.984375 31.070312 C 144.984375 30.949219 144.984375 30.832031 144.984375 30.710938 C 144.984375 30.675781 144.984375 30.644531 144.984375 30.609375 C 144.984375 30.515625 144.984375 30.421875 144.984375 30.328125 C 144.984375 30.226562 144.984375 30.125 144.984375 30.023438 C 144.984375 29.847656 144.984375 29.671875 144.984375 29.5 C 144.984375 29.246094 144.984375 28.992188 144.984375 28.738281 C 144.984375 28.328125 144.984375 27.917969 144.984375 27.507812 C 144.984375 27.109375 144.984375 26.710938 144.984375 26.3125 C 144.984375 26.285156 144.984375 26.261719 144.984375 26.234375 C 144.984375 26.113281 144.984375 25.988281 144.984375 25.867188 C 144.984375 24.84375 144.984375 23.820312 144.984375 22.796875 Z M 144.984375 22.796875 "/>
<path style=" stroke:none;fill-rule:nonzero;fill:rgb(100%,100%,100%);fill-opacity:1;" d="M 116.101562 17.390625 C 118.171875 17.390625 120.242188 17.390625 122.378906 17.390625 C 122.378906 22.851562 122.378906 28.3125 122.378906 33.9375 C 123.589844 33.9375 124.804688 33.9375 126.054688 33.9375 C 126.054688 34.578125 126.054688 35.222656 126.054688 35.882812 C 122.921875 35.882812 119.789062 35.882812 116.558594 35.882812 C 116.558594 35.242188 116.558594 34.597656 116.558594 33.9375 C 117.765625 33.9375 118.96875 33.9375 120.210938 33.9375 C 120.210938 29.121094 120.210938 24.300781 120.210938 19.335938 C 119.164062 19.335938 118.121094 19.335938 117.046875 19.335938 C 116.890625 19.027344 116.734375 18.714844 116.574219 18.394531 C 116.523438 18.292969 116.476562 18.195312 116.425781 18.09375 C 116.363281 17.976562 116.363281 17.976562 116.335938 17.917969 C 116.316406 17.878906 116.296875 17.839844 116.277344 17.800781 C 116.246094 17.742188 116.21875 17.683594 116.1875 17.621094 C 116.179688 17.605469 116.171875 17.585938 116.160156 17.570312 C 116.101562 17.449219 116.101562 17.449219 116.101562 17.390625 Z M 116.101562 17.390625 "/>
<path style=" stroke:none;fill-rule:nonzero;fill:rgb(100%,100%,100%);fill-opacity:1;" d="M 102.476562 17.390625 C 104.546875 17.390625 106.617188 17.390625 108.753906 17.390625 C 108.753906 22.851562 108.753906 28.3125 108.753906 33.9375 C 109.964844 33.9375 111.175781 33.9375 112.425781 33.9375 C 112.425781 34.578125 112.425781 35.222656 112.425781 35.882812 C 109.292969 35.882812 106.160156 35.882812 102.933594 35.882812 C 102.933594 35.242188 102.933594 34.597656 102.933594 33.9375 C 104.140625 33.9375 105.34375 33.9375 106.582031 33.9375 C 106.582031 29.121094 106.582031 24.300781 106.582031 19.335938 C 105.539062 19.335938 104.496094 19.335938 103.417969 19.335938 C 103.261719 19.027344 103.109375 18.714844 102.949219 18.394531 C 102.898438 18.292969 102.847656 18.195312 102.796875 18.09375 C 102.738281 17.976562 102.738281 17.976562 102.710938 17.917969 C 102.691406 17.878906 102.671875 17.839844 102.652344 17.800781 C 102.621094 17.742188 102.589844 17.683594 102.5625 17.621094 C 102.554688 17.605469 102.542969 17.585938 102.535156 17.570312 C 102.476562 17.449219 102.476562 17.449219 102.476562 17.390625 Z M 102.476562 17.390625 "/>
<path style=" stroke:none;fill-rule:nonzero;fill:rgb(100%,100%,100%);fill-opacity:1;" d="M 22.632812 22.257812 C 22.675781 22.308594 22.714844 22.359375 22.757812 22.410156 C 22.78125 22.445312 22.808594 22.476562 22.832031 22.511719 C 22.84375 22.527344 22.859375 22.546875 22.871094 22.5625 C 22.941406 22.652344 23.011719 22.738281 23.085938 22.828125 C 23.113281 22.863281 23.140625 22.898438 23.167969 22.933594 C 23.183594 22.949219 23.195312 22.964844 23.210938 22.980469 C 23.273438 23.058594 23.332031 23.136719 23.394531 23.214844 C 23.453125 23.285156 23.511719 23.355469 23.566406 23.429688 C 23.699219 23.589844 23.828125 23.75 23.957031 23.914062 C 24.058594 24.046875 24.164062 24.175781 24.269531 24.308594 C 24.359375 24.417969 24.445312 24.527344 24.53125 24.636719 C 24.636719 24.773438 24.746094 24.90625 24.851562 25.035156 C 24.972656 25.183594 25.089844 25.328125 25.207031 25.480469 C 25.296875 25.59375 25.386719 25.707031 25.476562 25.816406 C 25.582031 25.945312 25.683594 26.070312 25.78125 26.199219 C 25.886719 26.335938 25.996094 26.46875 26.105469 26.597656 C 26.222656 26.746094 26.34375 26.890625 26.457031 27.042969 C 26.546875 27.15625 26.636719 27.269531 26.730469 27.378906 C 26.832031 27.507812 26.933594 27.632812 27.035156 27.761719 C 27.136719 27.898438 27.246094 28.03125 27.355469 28.164062 C 27.414062 28.234375 27.472656 28.308594 27.53125 28.378906 C 27.546875 28.394531 27.558594 28.410156 27.570312 28.425781 C 27.855469 28.777344 27.976562 29.082031 27.941406 29.53125 C 27.898438 29.75 27.804688 29.90625 27.660156 30.070312 C 27.636719 30.097656 27.617188 30.121094 27.59375 30.148438 C 27.546875 30.207031 27.5 30.261719 27.449219 30.320312 C 27.347656 30.4375 27.25 30.5625 27.148438 30.683594 C 27.015625 30.847656 26.882812 31.011719 26.742188 31.175781 C 26.667969 31.261719 26.597656 31.351562 26.523438 31.441406 C 26.429688 31.558594 26.332031 31.675781 26.234375 31.789062 C 26.160156 31.878906 26.085938 31.964844 26.015625 32.054688 C 25.917969 32.171875 25.820312 32.289062 25.722656 32.40625 C 25.648438 32.492188 25.574219 32.582031 25.503906 32.667969 C 25.410156 32.789062 25.3125 32.902344 25.210938 33.019531 C 25.140625 33.105469 25.066406 33.195312 24.992188 33.285156 C 24.898438 33.402344 24.800781 33.519531 24.703125 33.632812 C 24.628906 33.722656 24.554688 33.808594 24.484375 33.898438 C 24.398438 34.003906 24.3125 34.105469 24.226562 34.207031 C 24.125 34.328125 24.023438 34.453125 23.921875 34.574219 C 23.722656 34.820312 23.523438 35.066406 23.316406 35.308594 C 23.226562 35.414062 23.136719 35.523438 23.050781 35.632812 C 22.972656 35.726562 22.894531 35.820312 22.816406 35.914062 C 22.757812 35.980469 22.699219 36.050781 22.644531 36.121094 C 22.625 36.144531 22.605469 36.171875 22.582031 36.195312 C 22.566406 36.21875 22.546875 36.242188 22.53125 36.265625 C 22.480469 36.316406 22.445312 36.34375 22.378906 36.371094 C 22.34375 36.339844 22.34375 36.339844 22.308594 36.3125 C 22.148438 36.171875 21.984375 36.03125 21.816406 35.894531 C 21.71875 35.816406 21.625 35.738281 21.527344 35.65625 C 21.507812 35.640625 21.488281 35.625 21.46875 35.609375 C 21.355469 35.515625 21.238281 35.417969 21.125 35.320312 C 21.011719 35.222656 20.894531 35.128906 20.769531 35.039062 C 20.808594 34.914062 20.878906 34.835938 20.964844 34.742188 C 20.992188 34.707031 21.019531 34.675781 21.046875 34.644531 C 21.066406 34.621094 21.066406 34.621094 21.089844 34.597656 C 21.140625 34.535156 21.191406 34.472656 21.246094 34.410156 C 21.328125 34.304688 21.414062 34.203125 21.496094 34.105469 C 21.582031 34.003906 21.667969 33.898438 21.753906 33.796875 C 21.847656 33.679688 21.945312 33.5625 22.042969 33.445312 C 22.117188 33.359375 22.191406 33.269531 22.261719 33.183594 C 22.359375 33.0625 22.457031 32.949219 22.554688 32.832031 C 22.628906 32.746094 22.703125 32.65625 22.773438 32.566406 C 22.871094 32.449219 22.96875 32.332031 23.066406 32.21875 C 23.140625 32.128906 23.210938 32.042969 23.285156 31.953125 C 23.378906 31.835938 23.476562 31.71875 23.574219 31.601562 C 23.648438 31.515625 23.722656 31.425781 23.792969 31.335938 C 23.878906 31.234375 23.964844 31.132812 24.050781 31.03125 C 24.175781 30.882812 24.296875 30.734375 24.417969 30.582031 C 24.554688 30.417969 24.6875 30.253906 24.824219 30.089844 C 24.917969 29.980469 25.007812 29.871094 25.097656 29.757812 C 25.144531 29.703125 25.191406 29.652344 25.238281 29.597656 C 25.25 29.582031 25.261719 29.570312 25.277344 29.554688 C 25.300781 29.523438 25.328125 29.496094 25.355469 29.46875 C 25.40625 29.410156 25.4375 29.371094 25.445312 29.292969 C 25.398438 29.1875 25.324219 29.109375 25.253906 29.019531 C 25.21875 28.980469 25.1875 28.941406 25.152344 28.902344 C 25.136719 28.882812 25.121094 28.863281 25.105469 28.84375 C 25.039062 28.769531 24.976562 28.6875 24.917969 28.609375 C 24.8125 28.476562 24.707031 28.34375 24.597656 28.210938 C 24.476562 28.066406 24.359375 27.921875 24.242188 27.769531 C 24.15625 27.65625 24.0625 27.542969 23.972656 27.429688 C 23.871094 27.304688 23.769531 27.179688 23.667969 27.050781 C 23.5625 26.914062 23.457031 26.78125 23.347656 26.652344 C 23.226562 26.503906 23.109375 26.359375 22.992188 26.207031 C 22.90625 26.09375 22.8125 25.980469 22.722656 25.871094 C 22.621094 25.742188 22.519531 25.617188 22.417969 25.488281 C 22.3125 25.351562 22.207031 25.21875 22.097656 25.089844 C 21.976562 24.941406 21.859375 24.796875 21.742188 24.644531 C 21.65625 24.53125 21.5625 24.417969 21.472656 24.308594 C 21.292969 24.085938 21.117188 23.867188 20.949219 23.640625 C 20.984375 23.566406 21.015625 23.519531 21.082031 23.46875 C 21.097656 23.453125 21.113281 23.441406 21.128906 23.429688 C 21.148438 23.414062 21.164062 23.402344 21.183594 23.386719 C 21.21875 23.355469 21.257812 23.328125 21.292969 23.296875 C 21.3125 23.28125 21.332031 23.265625 21.351562 23.25 C 21.421875 23.195312 21.492188 23.136719 21.566406 23.078125 C 21.722656 22.949219 21.878906 22.824219 22.039062 22.699219 C 22.121094 22.632812 22.203125 22.566406 22.285156 22.5 C 22.304688 22.484375 22.324219 22.46875 22.34375 22.453125 C 22.378906 22.421875 22.414062 22.390625 22.449219 22.363281 C 22.46875 22.347656 22.484375 22.335938 22.5 22.320312 C 22.515625 22.308594 22.53125 22.296875 22.542969 22.285156 C 22.582031 22.257812 22.582031 22.257812 22.632812 22.257812 Z M 22.632812 22.257812 "/>
<path style=" stroke:none;fill-rule:nonzero;fill:rgb(100%,100%,100%);fill-opacity:1;" d="M 28.730469 34.269531 C 31.222656 34.269531 33.71875 34.269531 36.285156 34.269531 C 36.285156 34.980469 36.285156 35.691406 36.285156 36.421875 C 33.792969 36.421875 31.300781 36.421875 28.730469 36.421875 C 28.730469 35.710938 28.730469 35 28.730469 34.269531 Z M 28.730469 34.269531 "/>
</g>
</svg>
